<svg width="424" height="248" viewBox="0 0 424 248" fill="none" xmlns="http://www.w3.org/2000/svg">
<rect x="122.483" y="52.9617" width="160.822" height="78.9003" fill="#144635"/>
<path d="M418.182 111.535L417.142 116.893L400.995 200.034C395.11 230.377 373.252 243.185 357.068 243.185C344.036 243.185 334.255 234.274 332.567 223.468C331.718 218.029 332.962 212.265 336.688 207.236C337.581 206.031 338.604 204.884 339.759 203.8C332.773 203.421 326.812 200.634 323.162 194.983C319.368 189.109 318.702 181.087 320.531 171.848L331.521 115.178L332.228 111.535H418.182Z" fill="#144635" stroke="#144635" stroke-width="9"/>
<path d="M334.913 92.8382L331.307 111.534H338.522L337.49 116.887L332.851 140.936L332.148 144.584H324.92L321.512 161.909C321.285 163.121 321.152 164.043 321.1 164.756C321.206 164.739 321.271 164.718 321.305 164.705C321.366 164.682 321.425 164.649 321.506 164.576C321.738 164.365 322.031 163.956 322.518 162.98L323.763 160.493H332.962L332.197 165.652C330.06 180.074 325.622 190.849 319.193 198.085C312.652 205.447 304.321 208.829 295.28 208.829C287.25 208.829 280.731 205.375 277.046 198.742C273.532 192.416 272.981 183.893 274.891 174.252L280.708 144.584H277.117L278.149 139.232L282.788 115.183L283.491 111.534H287.099L289.315 100.065L289.863 97.2279L292.671 96.5452L329.432 87.6126L336.24 85.9583L334.913 92.8382Z" fill="#144635" stroke="#144635" stroke-width="9"/>
<path d="M268.58 109.13C274.874 109.13 279.864 111.971 282.903 116.589C285.836 121.045 286.719 126.768 285.92 132.464L285.919 132.463C283.864 147.925 269.62 161.38 249.426 161.761L246.118 161.823L245.977 161.401C245.933 161.592 245.886 161.784 245.841 161.98L237.955 202.778L237.251 206.425H193.037L194.076 201.067L210.739 115.178L211.446 111.535H255.688L255.414 112.907C260.039 110.214 264.786 109.13 268.58 109.13Z" fill="#144635" stroke="#144635" stroke-width="9"/>
<path d="M154.71 109.13C159.094 109.13 163.891 110.531 167.732 113.769L168.149 111.535H212.379L211.351 116.885L202.965 160.492H212.115L211.387 165.625C209.346 179.995 205.195 190.743 199.156 197.98C192.99 205.369 185.063 208.829 176.355 208.829C170.585 208.829 165.712 206.657 162.144 202.746C160.931 201.417 159.902 199.923 159.041 198.301C152.573 206.021 144.116 208.829 138.048 208.829C129.583 208.829 121.641 204.58 117.067 195.278C112.647 186.288 111.556 172.996 115.078 154.858V154.857C117.6 141.886 122.728 130.623 129.531 122.506C136.315 114.412 145.074 109.13 154.71 109.13Z" fill="#144635" stroke="#144635" stroke-width="9"/>
<path d="M89.2078 66.0132C105.204 66.0133 119.451 70.6601 128.995 79.3364C138.713 88.1714 143.166 100.868 139.804 115.658C137.319 126.593 129.748 134.912 120.731 139.445C113.795 142.932 105.729 144.306 98.1335 142.729C98.2688 149.515 98.3162 156.366 97.6296 162.408L97.6257 162.441L97.6218 162.473C95.9251 175.689 91.6274 188.718 82.824 198.495C73.8891 208.417 60.7532 214.499 42.4832 214.499C17.8124 214.499 1.16824 196.388 5.08179 175.997L5.09155 175.948C7.13492 165.901 13.8428 156.268 23.572 150.597C19.1957 148.964 15.154 146.27 11.9548 142.503C6.20804 135.738 3.57636 125.997 5.94507 113.963L5.94604 113.958C8.23579 102.409 17.4646 90.4129 31.5818 81.4068C45.819 72.3241 65.3945 66.0132 89.2078 66.0132ZM52.0603 147.487C47.6702 150.304 42.2659 152.167 35.7839 152.448L35.3943 154.497C35.3542 154.707 35.3727 155.228 35.9812 155.82C36.5754 156.398 37.9738 157.228 40.7654 157.228C44.288 157.228 46.5995 156.004 48.5603 153.651C49.8321 152.125 50.9751 150.088 52.0603 147.487ZM74.9187 103.123C71.3308 104.261 67.9128 105.855 64.8855 107.825C58.3877 112.053 54.1666 117.671 53.2927 123.721C52.8933 126.528 53.5889 128.227 54.1101 128.83C54.3182 129.07 54.4738 129.129 54.6121 129.153C54.7822 129.182 55.2929 129.213 56.2361 128.78L59.2048 127.416C63.765 116.639 69.0437 108.789 74.9187 103.123Z" fill="#144635" stroke="#144635" stroke-width="9"/>
<path d="M377.195 109.035L376.964 110.225L368.204 155.396L368.205 155.397C367.687 158.161 367.513 160.009 367.713 161.136C367.809 161.677 367.97 161.931 368.109 162.056C368.236 162.171 368.463 162.287 368.939 162.287C369.638 162.287 370.096 162.156 370.544 161.751C371.044 161.297 371.61 160.424 372.268 158.713L381.7 109.845L381.856 109.035H418.937L418.707 110.225L402.559 193.367C396.976 222.155 376.487 233.685 362.068 233.685C350.688 233.685 342.436 225.96 341.025 216.928C340.319 212.405 341.338 207.588 344.5 203.32C347.657 199.059 352.906 195.401 360.576 193.078L361.193 192.891L361.618 193.377L362.821 194.751L363.608 195.651L362.583 196.267C361.063 197.179 360.459 198.339 360.403 199.09C360.376 199.458 360.475 199.687 360.59 199.814C360.697 199.933 360.919 200.078 361.381 200.078C362.382 200.078 363.23 199.483 364.01 197.942C364.799 196.386 365.38 194.106 365.894 191.28L365.896 191.269L366.875 186.178C360.962 192.341 353.192 194.348 346.436 194.348C339.58 194.348 334.232 191.929 331.102 187.084C328.005 182.288 327.222 175.328 328.965 166.528L339.958 109.844L340.115 109.035H377.195Z" fill="white" stroke="#144635" stroke-width="2"/>
<path d="M336.476 86.1751L332.068 109.034H339.283L339.054 110.224L334.415 134.274L334.259 135.084H327.041L323.078 155.224L323.079 155.225C322.824 156.587 322.65 157.739 322.595 158.705C322.539 159.679 322.609 160.39 322.784 160.9C322.947 161.374 323.202 161.681 323.591 161.894C324.014 162.125 324.674 162.286 325.703 162.286C327.173 162.286 328.137 161.82 328.854 161.171C329.607 160.49 330.14 159.564 330.649 158.545L330.926 157.993H333.905L333.735 159.139C331.657 173.166 327.397 183.21 321.576 189.761C315.73 196.34 308.368 199.329 300.28 199.329C293.352 199.329 288.095 196.424 285.105 191.042C282.153 185.729 281.496 178.156 283.323 168.933L289.961 135.084H286.357L286.586 133.895L291.224 109.845L291.381 109.034H294.988L297.752 94.7288L297.874 94.098L298.498 93.9466L335.259 85.014L336.771 84.6468L336.476 86.1751Z" fill="white" stroke="#144635" stroke-width="2"/>
<path d="M273.58 106.63C278.72 106.63 282.602 108.898 284.98 112.513C287.335 116.092 288.166 120.904 287.454 125.978C285.661 139.568 273.009 151.91 254.359 152.262L253.625 152.275L253.393 151.578L252.877 150.032L252.71 149.53L253.03 149.109C255.674 145.639 256.604 142.411 256.604 140.268C256.604 139.026 256.331 138.112 255.968 137.543C255.613 136.987 255.212 136.802 254.856 136.802C254.273 136.802 253.866 136.908 253.475 137.209C253.043 137.541 252.536 138.183 251.941 139.465C250.748 142.038 249.394 146.741 247.416 155.252L239.518 196.114L239.362 196.925H202.281L202.513 195.734L219.175 109.845L219.332 109.035H256.42L256.181 110.23L255.029 115.985C260.884 109.023 268.441 106.63 273.58 106.63Z" fill="white" stroke="#144635" stroke-width="2"/>
<path d="M159.71 106.63C165.329 106.63 171.657 109.328 174.727 116.169L175.905 109.852L176.058 109.035H213.142L212.913 110.224L204.324 154.881L204.325 154.882C203.805 157.659 203.595 159.614 203.85 160.852C203.97 161.435 204.174 161.753 204.404 161.939C204.638 162.126 205.033 162.286 205.747 162.286C208.018 162.286 209.301 160.582 209.759 158.749L209.948 157.992H213.083L212.922 159.133C210.932 173.148 206.936 183.186 201.469 189.737C195.973 196.323 189.035 199.329 181.355 199.329C176.532 199.329 172.61 197.544 169.73 194.387C167.45 191.889 165.861 188.574 164.952 184.697C159.041 195.762 149.274 199.329 143.048 199.329C135.89 199.329 129.181 195.813 125.209 187.734C121.271 179.724 120.059 167.317 123.514 149.525L123.749 148.358C126.253 136.358 131.057 126.1 137.214 118.755C143.565 111.178 151.423 106.63 159.71 106.63ZM168.986 136.802C167.777 136.802 166.454 137.611 165.157 139.719C163.871 141.808 162.741 144.983 161.894 149.22L161.895 149.221C161.132 153.121 160.893 156.569 161.196 158.997C161.349 160.219 161.629 161.092 161.974 161.632C162.293 162.132 162.617 162.286 162.975 162.286C163.191 162.286 163.676 162.152 164.374 161.417C165.049 160.706 165.835 159.516 166.651 157.658L170.21 139.189C170.122 138.176 169.871 137.554 169.618 137.208C169.369 136.867 169.135 136.802 168.986 136.802Z" fill="white" stroke="#144635" stroke-width="2"/>
<path d="M94.2078 63.5132C109.586 63.5133 122.906 67.9862 131.64 75.9263C140.414 83.9019 144.476 95.3081 141.391 108.882C139.169 118.661 132.376 126.188 124.16 130.318C116.436 134.201 107.364 135.123 99.5339 132.012C99.7099 140.395 99.97 148.816 99.1521 156.013L99.1501 156.027C97.5038 168.851 93.3756 181.099 85.2234 190.152C77.0419 199.238 64.9039 204.999 47.4832 204.999C24.4985 204.999 10.1114 188.415 13.5193 170.657L13.5212 170.645C15.6479 160.19 23.4273 150.123 34.5623 145.528L35.2312 145.251L35.7029 145.801L36.7332 147.003L37.0466 147.369L36.9568 147.841C36.6807 149.291 37.152 150.977 38.5398 152.328C39.9244 153.675 42.2725 154.728 45.7654 154.728C50.3558 154.728 53.642 153.02 56.2488 149.892C58.9045 146.705 60.8767 142.016 62.6726 136.03L62.6736 136.026C70.6599 109.831 81.5238 97.4472 93.8718 91.6704C93.426 91.6394 92.9665 91.6236 92.489 91.6236C83.9236 91.6236 75.0084 94.315 67.9763 98.8911C60.9376 103.472 55.8915 109.865 54.8289 117.221C54.3394 120.651 55.062 123.5 56.4636 125.12C57.1528 125.916 58.01 126.427 59.0115 126.601C60.0198 126.777 61.2526 126.625 62.698 125.96L63.6296 125.532L64.5496 127.678L64.7449 128.134L64.4998 128.566C60.0518 136.394 51.8404 142.986 39.0662 142.986C31.8473 142.986 24.5563 140.046 19.6228 134.238C14.6715 128.409 12.1832 119.797 14.3796 108.639V108.638C16.4249 98.3227 24.8551 87.0386 38.4636 78.3569C52.0989 69.6583 71.0127 63.5132 94.2078 63.5132ZM104.259 97.0874C101.129 102.08 99.9802 108.963 99.5779 116.902C103.354 114.61 105.595 111.238 106.455 107.084C107.165 103.523 106.347 99.8548 104.259 97.0874Z" fill="white" stroke="#144635" stroke-width="2"/>
<path d="M261.106 22.2119C264.681 22.2119 267.651 23.8101 269.328 26.7539C270.952 29.6056 271.196 33.4178 270.128 37.6484L268.294 44.9834H272.397L272.073 47.2646C271.168 53.6361 269.328 58.4022 266.65 61.6113C263.915 64.8887 260.399 66.4238 256.536 66.4238C252.981 66.4238 250.021 64.8787 248.345 61.9395C247.78 60.9477 247.383 59.8368 247.15 58.6279L246.162 63.7373L245.849 65.3574H226.238L226.699 62.9766L234.086 24.8975L234.401 23.2783H254.026L253.878 24.0146C256.225 22.7045 258.792 22.212 261.106 22.2119Z" fill="#144635" stroke="#144635" stroke-width="4"/>
<path d="M221.443 22.2119C225.05 22.2119 228.386 23.7108 230.552 26.5361C232.72 29.3649 233.546 33.2941 232.619 37.8545L232.62 37.8555C232.032 40.7941 230.955 43.1908 228.931 45.1328C227.845 46.1744 226.537 47.0331 224.998 47.7803C225.176 47.7921 225.362 47.8017 225.556 47.8018C227.018 47.8018 229.079 47.0904 230.511 45.5986L231.101 44.9834H234.845L234.46 47.3105C233.298 54.3227 230.608 59.1459 227.076 62.2119C223.548 65.2743 219.363 66.4238 215.503 66.4238C210.409 66.4238 205.931 64.1322 203.161 59.8447C200.422 55.604 199.497 49.6482 200.897 42.4873C203.153 30.8935 211.976 22.212 221.443 22.2119Z" fill="#144635" stroke="#144635" stroke-width="4"/>
<path d="M192.214 22.2119C195.821 22.2119 199.157 23.7108 201.323 26.5361C203.492 29.3649 204.317 33.2941 203.39 37.8545L203.391 37.8555C202.803 40.7941 201.726 43.1908 199.702 45.1328C198.616 46.1744 197.308 47.0331 195.769 47.7803C195.947 47.7921 196.133 47.8017 196.327 47.8018C197.79 47.8018 199.85 47.0904 201.282 45.5986L201.872 44.9834H205.616L205.231 47.3105C204.069 54.3227 201.379 59.1459 197.847 62.2119C194.319 65.2743 190.134 66.4238 186.274 66.4238C181.18 66.4238 176.702 64.1322 173.932 59.8447C171.193 55.604 170.268 49.6482 171.669 42.4873C173.924 30.8935 182.747 22.212 192.214 22.2119Z" fill="#144635" stroke="#144635" stroke-width="4"/>
<path d="M169.743 22.2119C172.535 22.212 174.75 23.4729 176.098 25.5215C177.398 27.4982 177.79 30.0368 177.436 32.5625C176.524 39.42 170.206 45.3866 161.251 45.5557L159.78 45.584L159.723 45.4111C159.703 45.4975 159.681 45.5845 159.66 45.6729L156.17 63.7373L155.857 65.3574H136.245L136.706 62.9766L144.094 24.8975L144.408 23.2783H164.033L163.912 23.8818C165.961 22.691 168.063 22.2119 169.743 22.2119Z" fill="#144635" stroke="#144635" stroke-width="4"/>
<path d="M127.538 5C134.674 5 140.017 6.58839 143.424 9.58105C146.926 12.6573 148.071 16.9366 147.334 21.4854L147.333 21.4844C146.666 25.6433 144.055 29.059 140.735 31.1221H144.644L144.203 33.4883L140.7 52.2998L140.698 52.3076C138.881 61.8674 134.944 68.9734 129.239 73.6777C123.537 78.38 116.273 80.5136 108.118 80.5137C103.5 80.5137 98.1276 79.1979 94.1632 76.1953C90.0682 73.0937 87.5564 68.2215 88.9493 61.6484C90.182 55.7484 93.5942 51.8086 97.9991 49.6934C100.377 48.5517 103.002 47.959 105.68 47.8389C99.902 43.8392 95.9947 36.1438 97.9298 26.1914V26.1904C100.368 13.665 113.062 5.00005 127.538 5ZM123.419 49.1309C120.95 50.2785 118.108 50.8877 115.124 50.8877C114.699 50.8877 114.274 50.8676 113.85 50.832V51.9512L112.744 52.5039C112.554 52.5992 112.061 53.2494 112.362 54.2324C112.565 54.8942 113.291 55.9501 115.734 55.9502C117.236 55.9502 119.183 54.9952 121.103 52.7051C121.932 51.7161 122.718 50.5172 123.419 49.1309ZM122.113 24.3496C121.622 25.21 121.221 26.261 120.976 27.5391C120.539 29.9403 120.858 31.5662 121.385 32.6016C121.906 33.6265 122.698 34.2131 123.512 34.4736C125.335 35.0571 126.745 34.0997 126.931 32.832L127.151 31.3271C125.062 29.897 123.355 27.6868 122.236 24.6807L122.113 24.3496ZM127.538 20.8047C126.959 20.8047 126.175 20.9495 125.345 21.3262L126.193 22.248C126.424 22.4995 127.014 22.732 127.849 22.5391C128.721 22.3373 128.992 21.8893 129.018 21.7773L129.024 21.752L129.03 21.7266C129.093 21.4862 129.035 21.3382 128.926 21.2197C128.797 21.0802 128.41 20.8047 127.538 20.8047Z" fill="#144635" stroke="#144635" stroke-width="4"/>
<path d="M260.106 18.2119C263.359 18.2119 265.977 19.649 267.458 22.249C268.913 24.8023 269.187 28.3254 268.159 32.4004L268.16 32.4014L266.179 40.3223C265.883 41.5072 265.865 42.2439 265.972 42.6279C266.018 42.7917 266.069 42.8299 266.076 42.835C266.084 42.8412 266.148 42.8877 266.351 42.8877C266.7 42.8877 266.902 42.7711 267.073 42.5908C267.281 42.371 267.452 42.042 267.637 41.5986L267.893 40.9834H270.245L270.083 42.124C269.193 48.3941 267.397 52.9572 264.882 55.9707C262.339 59.0183 259.105 60.4238 255.536 60.4238C252.293 60.4238 249.689 59.0325 248.213 56.4443C246.767 53.9085 246.495 50.3856 247.481 46.2451L247.482 46.2402L250.148 35.2734L250.149 35.2676C250.445 34.0824 250.495 33.3056 250.413 32.8799C250.396 32.789 250.375 32.7337 250.361 32.7021H250.358C250.213 32.7022 250.183 32.7236 250.144 32.7549C250.06 32.8219 249.886 33.0159 249.64 33.5547C249.147 34.6368 248.557 36.6654 247.68 40.4385L244.181 58.5469L244.024 59.3574H226.45L226.681 58.167L234.068 20.0879L234.225 19.2783H251.806L251.567 20.4746L251.411 21.251C254.035 19.0029 257.25 18.212 260.106 18.2119Z" fill="white" stroke="#144635" stroke-width="2"/>
<path d="M220.443 18.2119C223.77 18.2119 226.799 19.5896 228.758 22.1445C230.718 24.7014 231.521 28.3227 230.639 32.6592C230.078 35.4612 229.074 37.65 227.238 39.4111C225.724 40.8642 223.703 41.966 221.065 42.9229C221.908 43.4588 223.043 43.8017 224.556 43.8018C226.277 43.8018 228.602 42.9889 230.232 41.291L230.527 40.9834H232.666L232.473 42.1465C231.339 48.9845 228.739 53.577 225.421 56.457C222.105 59.3352 218.166 60.4238 214.503 60.4238C209.728 60.4238 205.576 58.2876 203.001 54.3018C200.441 50.3393 199.512 44.6672 200.879 37.6787C203.073 26.3986 211.597 18.212 220.443 18.2119ZM221.269 32.7197C221.102 32.7731 220.767 32.977 220.342 33.665C219.876 34.4177 219.438 35.5501 219.113 37.0059C220.105 36.2233 220.88 35.2742 221.159 34.3164L221.161 34.3086L221.163 34.3018C221.43 33.4341 221.363 32.9557 221.289 32.7617C221.283 32.7447 221.274 32.7315 221.269 32.7197Z" fill="white" stroke="#144635" stroke-width="2"/>
<path d="M191.214 18.2119C194.541 18.2119 197.57 19.5896 199.529 22.1445C201.489 24.7014 202.292 28.3227 201.41 32.6592C200.849 35.4612 199.845 37.65 198.009 39.4111C196.495 40.8642 194.474 41.966 191.836 42.9229C192.679 43.4588 193.814 43.8017 195.327 43.8018C197.048 43.8018 199.373 42.9889 201.003 41.291L201.298 40.9834H203.437L203.244 42.1465C202.111 48.9845 199.51 53.577 196.192 56.457C192.876 59.3352 188.937 60.4238 185.274 60.4238C180.499 60.4238 176.347 58.2876 173.772 54.3018C171.212 50.3393 170.283 44.6672 171.65 37.6787C173.844 26.3986 182.368 18.212 191.214 18.2119ZM192.04 32.7197C191.873 32.7731 191.538 32.977 191.113 33.665C190.647 34.4177 190.209 35.5501 189.884 37.0059C190.876 36.2233 191.651 35.2742 191.93 34.3164L191.932 34.3086L191.934 34.3018C192.201 33.4341 192.134 32.9557 192.06 32.7617C192.054 32.7447 192.045 32.7315 192.04 32.7197Z" fill="white" stroke="#144635" stroke-width="2"/>
<path d="M168.743 18.2119C171.205 18.212 173.102 19.3085 174.262 21.0703C175.398 22.7965 175.775 25.0756 175.445 27.4238C174.609 33.7467 168.745 39.395 160.232 39.5557L159.497 39.5703L159.265 38.8721L159.036 38.1875L158.868 37.6855L159.19 37.2646C160.304 35.8024 160.66 34.4863 160.66 33.6816C160.66 33.2052 160.554 32.9124 160.465 32.7734C160.441 32.7359 160.422 32.7147 160.41 32.7031C160.258 32.7063 160.213 32.732 160.168 32.7666C160.08 32.8343 159.902 33.026 159.654 33.5605C159.154 34.639 158.565 36.6633 157.688 40.4385L154.189 58.5469L154.031 59.3574H136.457L136.689 58.167L144.075 20.0879L144.233 19.2783H161.814L161.574 20.4746L161.433 21.1807C163.886 19.0092 166.697 18.2119 168.743 18.2119Z" fill="white" stroke="#144635" stroke-width="2"/>
<path d="M126.538 1C133.552 1 138.613 2.56577 141.764 5.33301C144.962 8.14196 146.039 12.0518 145.347 16.3252C144.474 21.7635 139.979 25.8782 135.097 26.9756C134.839 27.0336 134.578 27.0809 134.318 27.1221H142.441L142.22 28.3057L138.717 47.1172L138.716 47.1201C136.932 56.5078 133.087 63.3835 127.603 67.9062C122.119 72.4278 115.099 74.5136 107.118 74.5137C102.657 74.5137 97.5149 73.2364 93.7667 70.3975C89.9534 67.5091 87.6221 63.0169 88.9279 56.8555C90.0964 51.2591 93.3063 47.5758 97.4318 45.5947C101.05 43.8574 105.318 43.4517 109.456 44.1191C101.928 41.632 95.6018 33.2588 97.9113 21.3818L98.0275 20.8252C100.615 9.18351 112.628 1.00005 126.538 1ZM126.538 14.8047C124.309 14.8047 120.112 16.4856 118.991 22.3691C118.528 24.9268 118.846 26.7815 119.493 28.0547C120.139 29.324 121.146 30.0861 122.207 30.4258C124.428 31.1363 126.618 30.0392 126.92 27.9775L127.045 27.1221H130.751C129.705 26.9486 128.677 26.6158 127.699 26.0996C125.365 24.8674 123.408 22.6488 122.174 19.332L121.89 18.5674L122.581 18.1357L123.191 17.7549L123.895 17.3145L124.456 17.9258C125.01 18.5275 126.019 18.7577 127.074 18.5137C128.148 18.2653 128.845 17.6319 128.991 17.0049L128.994 16.9922L128.998 16.9795C129.144 16.4213 129.01 15.9182 128.66 15.54C128.301 15.1515 127.621 14.8047 126.538 14.8047ZM111.85 46.333L111.297 46.6094C110.554 46.9807 110.004 48.2104 110.406 49.5254C110.76 50.6797 111.932 51.9501 114.734 51.9502C116.646 51.9502 118.848 50.7589 120.869 48.3477C122.285 46.6586 123.56 44.4222 124.527 41.7432C121.743 43.7661 118.091 44.8877 114.124 44.8877C113.367 44.8877 112.606 44.8239 111.85 44.7031V46.333Z" fill="white" stroke="#144635" stroke-width="2"/>
<path d="M290.591 50.9618L290.128 53.3436L287.051 69.1649C289.376 67.8805 291.908 67.412 294.181 67.412C297.708 67.412 300.692 68.9213 302.541 71.4764C304.378 74.0135 304.962 77.3894 304.124 80.9168L304.122 80.9217C303.281 84.4266 300.513 87.5646 296.764 89.369C297.195 89.7999 297.562 90.217 297.881 90.5741C298.984 91.8076 299.364 92.0641 299.834 92.0829C299.846 92.0612 299.862 92.0358 299.877 92.0038C299.931 91.8909 299.987 91.7465 300.052 91.5516L300.508 90.1835H304.773L304.464 92.453C303.6 98.8126 301.844 103.568 299.298 106.774C296.695 110.053 293.327 111.624 289.612 111.624C285.81 111.624 282.98 109.47 281.465 106.37C280.964 105.345 280.606 104.219 280.388 103.025L279.238 108.939L278.922 110.557H259.308L259.775 108.174L270.665 52.577L270.982 50.9618H290.591Z" fill="#144635" stroke="#144635" stroke-width="4"/>
<path d="M261.276 67.4121C264.068 67.4122 266.283 68.6731 267.631 70.7217C268.931 72.6984 269.323 75.237 268.969 77.7627C268.057 84.6201 261.739 90.5868 252.784 90.7558L251.313 90.7842L251.256 90.6113C251.236 90.6977 251.214 90.7847 251.193 90.873L247.703 108.937L247.39 110.558H227.778L228.239 108.177L235.627 70.0976L235.941 68.4785H255.566L255.445 69.082C257.494 67.8912 259.596 67.4121 261.276 67.4121Z" fill="#144635" stroke="#144635" stroke-width="4"/>
<path d="M210.792 67.4121C212.734 67.4121 214.859 68.032 216.561 69.4639L216.746 68.4785H236.365L235.908 70.8564L232.191 90.1836H236.248L235.924 92.4648C235.019 98.8363 233.178 103.602 230.501 106.812C227.766 110.089 224.25 111.624 220.387 111.624C217.828 111.624 215.667 110.66 214.084 108.925C213.547 108.336 213.092 107.674 212.711 106.956C209.843 110.378 206.095 111.624 203.404 111.624C199.649 111.624 196.127 109.739 194.098 105.613C192.138 101.626 191.654 95.7314 193.216 87.6894L193.439 86.6201C194.622 81.3191 196.796 76.7193 199.625 73.3447C202.633 69.7554 206.518 67.4121 210.792 67.4121Z" fill="#144635" stroke="#144635" stroke-width="4"/>
<path d="M181.751 48.2962C188.844 48.2963 195.161 50.3568 199.394 54.2044C203.704 58.1226 205.678 63.7533 204.188 70.3118C203.085 75.1615 199.728 78.8515 195.729 80.8616C192.655 82.4071 189.08 83.0163 185.713 82.3187C185.773 85.3256 185.793 88.361 185.489 91.0384L185.487 91.053L185.486 91.0677C184.734 96.9277 182.828 102.705 178.924 107.04C174.961 111.44 169.136 114.137 161.035 114.137C150.095 114.137 142.713 106.106 144.448 97.0618L144.451 97.0511L144.453 97.0403C145.359 92.5878 148.33 88.3185 152.641 85.803C150.703 85.0784 148.914 83.8841 147.497 82.2161C144.948 79.2152 143.781 74.8951 144.831 69.5589L144.832 69.556C145.848 64.4344 149.94 59.1147 156.199 55.1214C162.512 51.094 171.192 48.2962 181.751 48.2962ZM165.271 84.4339C163.327 85.678 160.936 86.4996 158.069 86.6243L157.897 87.5316C157.88 87.6234 157.888 87.8522 158.156 88.1136C158.419 88.3688 159.037 88.7366 160.273 88.7366C161.834 88.7366 162.857 88.1946 163.726 87.1526C164.287 86.4791 164.791 85.5804 165.271 84.4339ZM175.395 64.7679C173.813 65.2719 172.305 65.9732 170.97 66.8421C168.09 68.7163 166.22 71.2066 165.833 73.887C165.656 75.1306 165.965 75.8821 166.194 76.1478C166.286 76.2533 166.353 76.2789 166.413 76.2894C166.487 76.3023 166.713 76.3163 167.131 76.1243L168.448 75.5189C170.465 70.7537 172.797 67.2785 175.395 64.7679Z" fill="#144635" stroke="#144635" stroke-width="4"/>
<path d="M289.378 46.9617L289.147 48.1522L285.602 66.3768C288.206 64.1647 291.377 63.412 294.181 63.4119C297.411 63.4119 300.084 64.7852 301.732 67.0623C303.373 69.3305 303.931 72.3994 303.151 75.6864V75.6883C302.291 79.2715 299.147 82.5382 294.905 84.0662C295.833 84.7665 296.534 85.5691 297.135 86.241C298.233 87.4688 298.882 88.0876 299.893 88.0877C300.238 88.0877 300.405 87.9754 300.537 87.8231C300.713 87.6212 300.854 87.309 301.001 86.867L301.229 86.1834H303.627L303.474 87.3182C302.623 93.5825 300.906 98.1401 298.515 101.152C296.095 104.201 293.012 105.624 289.612 105.624C286.245 105.624 283.735 103.738 282.364 100.931C281.01 98.1605 280.753 94.5003 281.712 90.744C281.988 89.6004 281.9 88.8913 281.694 88.4832C281.611 88.3207 281.491 88.1715 281.311 88.0448L278.255 103.749L278.098 104.557H260.523L260.756 103.365L271.647 47.7694L271.805 46.9617H289.378ZM284.253 77.9032C284.127 77.9061 284.051 77.9286 283.994 77.9578C283.932 77.99 283.831 78.0626 283.699 78.2498C283.41 78.6588 283.082 79.4638 282.744 81.0008L282.4 82.6512C282.815 82.5044 283.138 82.3109 283.391 82.0936C283.88 81.6734 284.194 81.1024 284.385 80.4354C284.538 79.842 284.579 79.0548 284.461 78.4569C284.401 78.1534 284.316 77.9824 284.259 77.909C284.257 77.9068 284.255 77.905 284.253 77.9032Z" fill="white" stroke="#144635" stroke-width="2"/>
<path d="M261.276 63.4121C263.738 63.4122 265.635 64.5086 266.795 66.2705C267.931 67.9967 268.308 70.2757 267.978 72.624C267.142 78.9468 261.278 84.5952 252.765 84.7558L252.03 84.7705L251.798 84.0722L251.569 83.3877L251.401 82.8857L251.723 82.4648C252.837 81.0025 253.193 79.6864 253.193 78.8818C253.193 78.4054 253.087 78.1126 252.998 77.9736C252.974 77.936 252.955 77.9149 252.943 77.9033C252.791 77.9065 252.746 77.9322 252.701 77.9668C252.613 78.0345 252.435 78.2262 252.187 78.7607C251.687 79.8392 251.098 81.8634 250.221 85.6386L246.722 103.747L246.564 104.558H228.99L229.222 103.367L236.608 65.288L236.766 64.4785H254.347L254.107 65.6748L253.966 66.3808C256.419 64.2094 259.23 63.4121 261.276 63.4121Z" fill="white" stroke="#144635" stroke-width="2"/>
<path d="M210.792 63.4121C213.055 63.4121 215.573 64.3424 217.179 66.6054L217.425 65.2949L217.577 64.4785H235.154L234.926 65.667L231.118 85.4629L231.119 85.4638C230.885 86.7107 230.819 87.4706 230.906 87.8955C230.927 87.9951 230.949 88.0408 230.96 88.0576C230.985 88.0679 231.055 88.0878 231.202 88.0879C231.847 88.0879 232.269 87.6262 232.44 86.9414L232.63 86.1836H235.095L234.934 87.3242C234.044 93.5942 232.248 98.1573 229.733 101.171C227.19 104.219 223.956 105.624 220.387 105.624C218.099 105.624 216.208 104.77 214.822 103.251C213.999 102.348 213.374 101.235 212.937 99.9707C210.186 104.191 206.126 105.624 203.404 105.624C200.023 105.624 196.853 103.948 194.996 100.172C193.173 96.4647 192.655 90.8237 194.197 82.8808V82.8798C195.289 77.2624 197.503 72.4329 200.391 68.9863C203.276 65.5449 206.903 63.4121 210.792 63.4121ZM214.771 77.9179C214.511 77.9727 214.128 78.2026 213.68 78.9306C213.159 79.7779 212.675 81.1143 212.305 82.9629C211.973 84.6619 211.879 86.1239 212.003 87.1171C212.065 87.613 212.172 87.9046 212.26 88.0468C212.305 88.0153 212.372 87.9646 212.456 87.8759C212.691 87.6285 212.997 87.1773 213.335 86.4209L214.883 78.3857C214.856 78.1438 214.809 77.9972 214.771 77.9179Z" fill="white" stroke="#144635" stroke-width="2"/>
<path d="M181.751 44.2962C188.667 44.2963 194.721 46.3072 198.722 49.9446C202.761 53.6173 204.625 58.8798 203.213 65.0911C202.186 69.6101 199.05 73.0729 195.28 74.9681C191.99 76.6222 188.137 77.1188 184.685 76.0179C184.76 79.4585 184.837 82.9266 184.496 85.9261L184.494 85.9397C183.756 91.6876 181.9 97.2426 178.182 101.371C174.435 105.533 168.894 108.137 161.035 108.137C150.577 108.137 143.839 100.542 145.431 92.2503L145.433 92.2395C146.412 87.4256 149.983 82.8089 155.094 80.6995L155.537 80.5159C152.795 80.1208 150.157 78.8032 148.259 76.5686C145.937 73.8354 144.811 69.8381 145.812 64.7522V64.7503C146.758 59.9809 150.623 54.8657 156.737 50.9651C162.878 47.0474 171.369 44.2962 181.751 44.2962ZM167.409 76.2913C165.19 78.8055 161.872 80.6438 157.304 80.6438C156.83 80.6438 156.355 80.6155 155.882 80.5608L156.235 80.9729L156.692 81.5061L157.005 81.8714L156.915 82.344C156.83 82.7897 156.967 83.3521 157.458 83.8304C157.946 84.3054 158.836 84.7366 160.273 84.7366C162.139 84.7366 163.441 84.0559 164.494 82.7923C165.596 81.47 166.444 79.4825 167.236 76.8431L167.237 76.8391C167.293 76.6549 167.352 76.4726 167.409 76.2913ZM179.308 57.9534C176.155 58.2448 172.995 59.3318 170.425 61.0042C167.39 62.9789 165.284 65.6898 164.843 68.7434C164.64 70.1652 164.956 71.2456 165.438 71.802C165.667 72.0668 165.935 72.2213 166.242 72.2747C166.556 72.3292 166.987 72.291 167.548 72.0335L168.48 71.6048L168.791 72.3294C171.691 64.8719 175.271 60.4904 179.308 57.9534ZM186.232 60.8411C185.38 62.5861 184.961 64.8021 184.764 67.3724C185.75 66.5006 186.36 65.3822 186.634 64.0638C186.857 62.9457 186.704 61.8079 186.232 60.8411Z" fill="white" stroke="#144635" stroke-width="2"/>
</svg>
